<?xml version="1.0" standalone="no"?>
<!DOCTYPE svg PUBLIC "-//W3C//DTD SVG 20010904//EN"
 "http://www.w3.org/TR/2001/REC-SVG-20010904/DTD/svg10.dtd">
<svg version="1.0" xmlns="http://www.w3.org/2000/svg"
 width="512.000000pt" height="512.000000pt" viewBox="0 0 512.000000 512.000000"
 preserveAspectRatio="xMidYMid meet">
<metadata>
Created by potrace 1.14, written by Peter Selinger 2001-2017
</metadata>
<g transform="translate(0.000000,512.000000) scale(0.100000,-0.100000)"
fill="#000000" stroke="none">
<path d="M4055 5030 c-159 -50 -335 -104 -390 -121 -164 -50 -305 -93 -585
-179 -146 -45 -301 -93 -345 -105 -73 -22 -1285 -392 -1400 -429 -81 -25 -449
-137 -465 -141 -8 -2 -67 -20 -130 -40 -63 -20 -122 -38 -130 -40 -61 -15
-350 -108 -369 -118 -14 -6 -36 -31 -51 -54 -43 -67 -49 -40 146 -668 l77
-250 2 -1225 c1 -674 5 -1245 9 -1270 12 -75 70 -185 128 -243 66 -66 131
-105 216 -129 63 -17 155 -18 1922 -17 1562 0 1863 3 1907 14 156 42 277 155
335 311 l21 59 1 1281 1 1281 -28 36 c-59 77 93 71 -1674 71 -871 0 -1579 3
-1575 6 6 6 86 31 202 65 25 7 209 63 410 125 629 193 810 249 885 270 17 5
134 41 260 80 127 39 304 94 395 121 143 44 448 137 782 240 101 31 134 52
162 106 21 42 20 86 -3 159 -21 66 -47 150 -156 509 -89 292 -102 324 -143
354 -63 45 -100 39 -417 -59z m253 -385 c17 -55 51 -167 76 -250 25 -82 42
-152 38 -156 -4 -3 -72 -25 -152 -49 -80 -23 -185 -56 -234 -71 -50 -16 -95
-25 -100 -20 -6 4 -110 86 -231 182 -121 96 -233 185 -249 197 -20 15 -24 23
-15 27 74 28 826 251 831 246 3 -3 20 -51 36 -106z m-980 -475 l244 -193 -144
-45 c-78 -24 -156 -47 -173 -52 -16 -4 -128 -38 -247 -74 l-217 -67 -178 141
c-98 77 -185 146 -193 153 -8 7 -43 34 -77 62 -34 27 -59 52 -55 56 4 3 122
41 262 83 140 43 311 95 380 116 101 30 128 35 140 26 8 -7 125 -100 258 -206z
m-1376 -173 c20 -17 102 -84 183 -147 81 -63 161 -128 179 -143 17 -15 46 -38
63 -50 18 -12 33 -25 33 -29 0 -4 -37 -18 -82 -32 -46 -14 -166 -50 -268 -81
-102 -31 -238 -73 -303 -93 -79 -24 -123 -33 -132 -26 -10 6 -449 354 -494
391 -2 1 -2 6 1 9 10 9 741 233 763 233 11 0 37 -14 57 -32z m-1162 -346 c19
-16 107 -86 195 -156 88 -69 169 -134 180 -143 11 -10 37 -30 58 -46 21 -16
36 -31 33 -33 -6 -6 -549 -173 -563 -173 -6 0 -24 39 -39 88 -14 48 -39 128
-55 177 -15 50 -38 124 -50 165 -12 41 -22 77 -23 79 -1 6 192 69 214 70 8 0
31 -12 50 -28z m3840 -920 c3 -1 5 -517 5 -1148 -1 -1276 4 -1184 -67 -1235
l-33 -23 -1850 0 -1850 0 -32 24 c-72 54 -67 -31 -67 1224 -1 621 2 1136 5
1145 6 16 133 17 1945 15 1067 0 1941 -2 1944 -2z"/>
<path d="M2135 2244 c-16 -7 -40 -23 -52 -36 -51 -54 -50 -50 -49 -693 1 -547
3 -603 19 -632 24 -45 72 -75 127 -81 43 -4 58 1 132 41 80 43 347 197 378
217 8 5 31 18 50 29 143 78 529 307 548 324 55 51 64 135 21 203 -18 30 -152
113 -469 292 -25 14 -78 45 -118 69 -41 24 -76 43 -79 43 -3 0 -17 8 -31 19
-15 10 -43 27 -62 37 -19 11 -96 54 -170 96 -143 82 -189 96 -245 72z m478
-574 c130 -74 237 -138 237 -142 0 -3 -84 -55 -187 -115 -104 -59 -196 -112
-205 -118 -44 -26 -98 -54 -99 -52 -1 1 -2 129 -4 285 -1 212 2 282 10 280 7
-2 118 -64 248 -138z"/>
</g>
</svg>
